<svg width="50" height="50" viewBox="0 0 50 50" fill="none" xmlns="http://www.w3.org/2000/svg">
<path d="M4.16667 25C4.16667 29.1204 5.38852 33.1484 7.67772 36.5744C9.96691 40.0004 13.2206 42.6707 17.0274 44.2475C20.8342 45.8243 25.0231 46.2369 29.0644 45.433C33.1056 44.6292 36.8178 42.645 39.7314 39.7314C42.645 36.8178 44.6292 33.1056 45.433 29.0644C46.2369 25.0231 45.8243 20.8342 44.2475 17.0274C42.6707 13.2206 40.0004 9.96691 36.5744 7.67771C33.1484 5.38852 29.1204 4.16666 25 4.16666C22.2641 4.16666 19.555 4.70553 17.0274 5.75251C14.4998 6.79948 12.2032 8.33405 10.2686 10.2686C6.3616 14.1756 4.16667 19.4747 4.16667 25ZM28.875 17.3125L34.8333 23.5625C34.9215 23.6529 34.9921 23.7588 35.0417 23.875C35.1301 23.973 35.2007 24.0859 35.25 24.2083C35.3602 24.4577 35.4172 24.7273 35.4172 25C35.4172 25.2726 35.3602 25.5423 35.25 25.7917C35.1508 26.0474 35.0022 26.281 34.8125 26.4792L28.5625 32.7292C28.1702 33.1215 27.6381 33.3419 27.0833 33.3419C26.5285 33.3419 25.9965 33.1215 25.6042 32.7292C25.2119 32.3369 24.9915 31.8048 24.9915 31.25C24.9915 30.6952 25.2119 30.1631 25.6042 29.7708L28.3125 27.0833H16.6667C16.1141 27.0833 15.5842 26.8638 15.1935 26.4731C14.8028 26.0824 14.5833 25.5525 14.5833 25C14.5833 24.4475 14.8028 23.9176 15.1935 23.5269C15.5842 23.1362 16.1141 22.9167 16.6667 22.9167H28.4583L25.8542 20.1875C25.4729 19.7869 25.2664 19.2513 25.2801 18.6984C25.2938 18.1456 25.5265 17.6208 25.9271 17.2396C26.3277 16.8583 26.8633 16.6518 27.4161 16.6655C27.969 16.6792 28.4937 16.9119 28.875 17.3125Z" fill="#2AA198"/>
</svg>
