<svg width="100" height="100" viewBox="0 0 100 100" fill="none" xmlns="http://www.w3.org/2000/svg">
<path d="M84.375 43.75H79.6875V29.6875C79.6875 13.3203 66.3672 0 50 0C33.6328 0 20.3125 13.3203 20.3125 29.6875V43.75H15.625C10.4492 43.75 6.25 47.9492 6.25 53.125V90.625C6.25 95.8008 10.4492 100 15.625 100H84.375C89.5508 100 93.75 95.8008 93.75 90.625V53.125C93.75 47.9492 89.5508 43.75 84.375 43.75ZM64.0625 43.75H35.9375V29.6875C35.9375 21.9336 42.2461 15.625 50 15.625C57.7539 15.625 64.0625 21.9336 64.0625 29.6875V43.75Z" fill="black"/>
</svg>
