<svg width="97" height="100" viewBox="0 0 97 100" fill="none" xmlns="http://www.w3.org/2000/svg">
<path d="M63.3672 43.052C50.4992 39.0289 38.2004 46.1338 35.2518 59.2844C35.1409 59.7789 35.4508 60.3289 35.9316 60.4979L38.4881 61.396C38.9468 61.5575 39.3918 61.3096 39.4996 60.8386C41.9681 50.0709 52.0282 44.2606 62.5897 47.5074C63.0516 47.6496 63.4884 47.3877 63.5782 46.9102L64.0787 44.2472C64.1723 43.7465 63.8509 43.2032 63.3672 43.052ZM55.2747 61.5003C53.6967 62.4113 53.2848 64.6514 54.3545 66.5043C55.4243 68.3572 57.5702 69.1205 59.1483 68.2094C60.7263 67.2983 61.1382 65.0582 60.0685 63.2053C58.9987 61.3525 56.8528 60.5892 55.2747 61.5003ZM61.7924 51.8954C53.5625 49.5234 45.7561 54.0381 43.6979 62.3423C43.5745 62.8399 43.8851 63.4006 44.373 63.5704L46.939 64.4644C47.386 64.62 47.8293 64.392 47.9476 63.938C49.499 57.9706 55.1191 54.737 61.049 56.3739C61.5013 56.4985 61.9207 56.2291 62.0091 55.7636L62.5179 53.0944C62.6153 52.5867 62.2842 52.0371 61.7924 51.8954Z" fill="#859900"/>
<path d="M56.4604 18.8144L44.752 25.5743L47.9412 13.7749C48.0697 13.2952 48.1025 12.795 48.0377 12.3026C47.9729 11.8103 47.8117 11.3356 47.5634 10.9055C47.3151 10.4755 46.9846 10.0986 46.5906 9.79628C46.1967 9.49398 45.747 9.27225 45.2674 9.14373C44.7877 9.0152 44.2875 8.98241 43.7951 9.04723C43.3028 9.11205 42.8281 9.2732 42.398 9.52148C41.5295 10.0229 40.8958 10.8488 40.6362 11.8175L36.12 28.7751L19.1763 24.2074C18.6966 24.0789 18.1964 24.0461 17.704 24.1109C17.2117 24.1757 16.737 24.3369 16.3069 24.5852C15.8769 24.8335 15.5 25.164 15.1977 25.558C14.8954 25.9519 14.6736 26.4016 14.5451 26.8812C14.2856 27.8499 14.4214 28.8821 14.9229 29.7506C15.1712 30.1806 15.5017 30.5576 15.8957 30.8599C16.2896 31.1621 16.7393 31.3839 17.2189 31.5124L29.0321 34.6502L17.3237 41.41C14.7288 42.9082 12.8353 45.3758 12.0598 48.2701C11.2843 51.1643 11.6903 54.2481 13.1884 56.8431L32.0181 89.4569C33.5162 92.0518 35.9839 93.9453 38.8782 94.7208C41.7724 95.4964 44.8562 95.0904 47.4511 93.5922L86.5878 70.9966C89.1827 69.4985 91.0762 67.0308 91.8517 64.1366C92.6272 61.2423 92.2212 58.1585 90.723 55.5636L71.8934 22.9497C70.3952 20.3548 67.9276 18.4613 65.0333 17.6858C62.1391 16.9103 59.0553 17.3163 56.4604 18.8144ZM84.2003 59.3295C84.6997 60.1945 84.835 61.2224 84.5765 62.1872C84.318 63.1519 83.6868 63.9745 82.8218 64.4739L43.6852 87.0694C42.8202 87.5688 41.7923 87.7041 40.8275 87.4456C39.8628 87.1871 39.0402 86.556 38.5408 85.691L19.7112 53.0771C19.2118 52.2122 19.0765 51.1842 19.335 50.2195C19.5935 49.2547 20.2247 48.4322 21.0896 47.9328L60.2263 25.3372C61.0913 24.8378 62.1192 24.7025 63.084 24.961C64.0487 25.2195 64.8712 25.8507 65.3706 26.7156L84.2003 59.3295Z" fill="#2AA198"/>
</svg>
